<svg id="visual" viewBox="0 0 1920 920" width="1920" height="920" xmlns="http://www.w3.org/2000/svg" xmlns:xlink="http://www.w3.org/1999/xlink" version="1.1"><rect x="0" y="0" width="1920" height="920" fill="#dde2e6"></rect><defs><linearGradient id="grad1_0" x1="52.1%" y1="0%" x2="100%" y2="100%"><stop offset="8.260869565217394%" stop-color="#000000" stop-opacity="1"></stop><stop offset="91.73913043478261%" stop-color="#000000" stop-opacity="1"></stop></linearGradient></defs><defs><linearGradient id="grad1_1" x1="52.1%" y1="0%" x2="100%" y2="100%"><stop offset="8.260869565217394%" stop-color="#000000" stop-opacity="1"></stop><stop offset="91.73913043478261%" stop-color="#1e2225" stop-opacity="1"></stop></linearGradient></defs><defs><linearGradient id="grad1_2" x1="52.1%" y1="0%" x2="100%" y2="100%"><stop offset="8.260869565217394%" stop-color="#393d40" stop-opacity="1"></stop><stop offset="91.73913043478261%" stop-color="#1e2225" stop-opacity="1"></stop></linearGradient></defs><defs><linearGradient id="grad1_3" x1="52.1%" y1="0%" x2="100%" y2="100%"><stop offset="8.260869565217394%" stop-color="#393d40" stop-opacity="1"></stop><stop offset="91.73913043478261%" stop-color="#575b5e" stop-opacity="1"></stop></linearGradient></defs><defs><linearGradient id="grad1_4" x1="52.1%" y1="0%" x2="100%" y2="100%"><stop offset="8.260869565217394%" stop-color="#767b7e" stop-opacity="1"></stop><stop offset="91.73913043478261%" stop-color="#575b5e" stop-opacity="1"></stop></linearGradient></defs><defs><linearGradient id="grad1_5" x1="52.1%" y1="0%" x2="100%" y2="100%"><stop offset="8.260869565217394%" stop-color="#767b7e" stop-opacity="1"></stop><stop offset="91.73913043478261%" stop-color="#979ca0" stop-opacity="1"></stop></linearGradient></defs><defs><linearGradient id="grad1_6" x1="52.1%" y1="0%" x2="100%" y2="100%"><stop offset="8.260869565217394%" stop-color="#b9bec2" stop-opacity="1"></stop><stop offset="91.73913043478261%" stop-color="#979ca0" stop-opacity="1"></stop></linearGradient></defs><defs><linearGradient id="grad1_7" x1="52.1%" y1="0%" x2="100%" y2="100%"><stop offset="8.260869565217394%" stop-color="#b9bec2" stop-opacity="1"></stop><stop offset="91.73913043478261%" stop-color="#dde2e6" stop-opacity="1"></stop></linearGradient></defs><defs><linearGradient id="grad2_0" x1="0%" y1="0%" x2="47.9%" y2="100%"><stop offset="8.260869565217394%" stop-color="#000000" stop-opacity="1"></stop><stop offset="91.73913043478261%" stop-color="#000000" stop-opacity="1"></stop></linearGradient></defs><defs><linearGradient id="grad2_1" x1="0%" y1="0%" x2="47.9%" y2="100%"><stop offset="8.260869565217394%" stop-color="#1e2225" stop-opacity="1"></stop><stop offset="91.73913043478261%" stop-color="#000000" stop-opacity="1"></stop></linearGradient></defs><defs><linearGradient id="grad2_2" x1="0%" y1="0%" x2="47.9%" y2="100%"><stop offset="8.260869565217394%" stop-color="#1e2225" stop-opacity="1"></stop><stop offset="91.73913043478261%" stop-color="#393d40" stop-opacity="1"></stop></linearGradient></defs><defs><linearGradient id="grad2_3" x1="0%" y1="0%" x2="47.9%" y2="100%"><stop offset="8.260869565217394%" stop-color="#575b5e" stop-opacity="1"></stop><stop offset="91.73913043478261%" stop-color="#393d40" stop-opacity="1"></stop></linearGradient></defs><defs><linearGradient id="grad2_4" x1="0%" y1="0%" x2="47.9%" y2="100%"><stop offset="8.260869565217394%" stop-color="#575b5e" stop-opacity="1"></stop><stop offset="91.73913043478261%" stop-color="#767b7e" stop-opacity="1"></stop></linearGradient></defs><defs><linearGradient id="grad2_5" x1="0%" y1="0%" x2="47.9%" y2="100%"><stop offset="8.260869565217394%" stop-color="#979ca0" stop-opacity="1"></stop><stop offset="91.73913043478261%" stop-color="#767b7e" stop-opacity="1"></stop></linearGradient></defs><defs><linearGradient id="grad2_6" x1="0%" y1="0%" x2="47.9%" y2="100%"><stop offset="8.260869565217394%" stop-color="#979ca0" stop-opacity="1"></stop><stop offset="91.73913043478261%" stop-color="#b9bec2" stop-opacity="1"></stop></linearGradient></defs><defs><linearGradient id="grad2_7" x1="0%" y1="0%" x2="47.9%" y2="100%"><stop offset="8.260869565217394%" stop-color="#dde2e6" stop-opacity="1"></stop><stop offset="91.73913043478261%" stop-color="#b9bec2" stop-opacity="1"></stop></linearGradient></defs><g transform="translate(1920, 0)"><path d="M0 782C-114.2 782.2 -228.5 782.3 -299.3 722.5C-370.1 662.6 -397.4 542.8 -468.8 468.8C-540.2 394.8 -655.6 366.7 -715.1 296.2C-774.6 225.7 -778.3 112.9 -782 0L0 0Z" fill="#cbd0d4"></path><path d="M0 684.3C-99.9 684.4 -199.9 684.5 -261.9 632.2C-323.8 579.8 -347.8 474.9 -410.2 410.2C-472.7 345.5 -573.6 320.9 -625.7 259.2C-677.8 197.5 -681 98.7 -684.2 0L0 0Z" fill="#a8adb1"></path><path d="M0 586.5C-85.7 586.6 -171.3 586.7 -224.4 541.9C-277.5 497 -298.1 407.1 -351.6 351.6C-405.1 296.1 -491.7 275 -536.3 222.1C-581 169.3 -583.7 84.6 -586.5 0L0 0Z" fill="#868b8f"></path><path d="M0 488.8C-71.4 488.8 -142.8 488.9 -187 451.5C-231.3 414.1 -248.4 339.2 -293 293C-337.6 246.8 -409.7 229.2 -446.9 185.1C-484.1 141.1 -486.4 70.5 -488.7 0L0 0Z" fill="#666b6e"></path><path d="M0 391C-57.1 391.1 -114.2 391.2 -149.6 361.2C-185 331.3 -198.7 271.4 -234.4 234.4C-270.1 197.4 -327.8 183.3 -357.5 148.1C-387.3 112.9 -389.2 56.4 -391 0L0 0Z" fill="#484c4f"></path><path d="M0 293.3C-42.8 293.3 -85.7 293.4 -112.2 270.9C-138.8 248.5 -149 203.5 -175.8 175.8C-202.6 148.1 -245.8 137.5 -268.2 111.1C-290.5 84.6 -291.9 42.3 -293.2 0L0 0Z" fill="#2b2f32"></path><path d="M0 195.5C-28.6 195.5 -57.1 195.6 -74.8 180.6C-92.5 165.7 -99.4 135.7 -117.2 117.2C-135 98.7 -163.9 91.7 -178.8 74C-193.7 56.4 -194.6 28.2 -195.5 0L0 0Z" fill="#111518"></path><path d="M0 97.8C-14.3 97.8 -28.6 97.8 -37.4 90.3C-46.3 82.8 -49.7 67.8 -58.6 58.6C-67.5 49.4 -81.9 45.8 -89.4 37C-96.8 28.2 -97.3 14.1 -97.7 0L0 0Z" fill="#000000"></path></g><g transform="translate(0, 920)"><path d="M0 -782C81.8 -705.2 163.6 -628.5 240.7 -581.1C317.8 -533.8 390.1 -515.9 478 -478C565.9 -440.1 669.2 -382.3 722.5 -299.3C775.7 -216.3 778.9 -108.1 782 0L0 0Z" fill="#cbd0d4"></path><path d="M0 -684.2C71.6 -617.1 143.2 -549.9 210.6 -508.5C278.1 -467.1 341.4 -451.4 418.3 -418.3C495.1 -385.1 585.6 -334.5 632.2 -261.9C678.8 -189.2 681.5 -94.6 684.3 0L0 0Z" fill="#a8adb1"></path><path d="M0 -586.5C61.4 -528.9 122.7 -471.3 180.5 -435.8C238.3 -400.3 292.6 -386.9 358.5 -358.5C424.4 -330.1 501.9 -286.7 541.9 -224.4C581.8 -162.2 584.1 -81.1 586.5 0L0 0Z" fill="#868b8f"></path><path d="M0 -488.7C51.1 -440.8 102.3 -392.8 150.4 -363.2C198.6 -333.6 243.8 -322.4 298.8 -298.8C353.7 -275.1 418.3 -238.9 451.5 -187C484.8 -135.2 486.8 -67.6 488.8 0L0 0Z" fill="#666b6e"></path><path d="M0 -391C40.9 -352.6 81.8 -314.2 120.4 -290.6C158.9 -266.9 195.1 -257.9 239 -239C282.9 -220.1 334.6 -191.1 361.2 -149.6C387.9 -108.1 389.4 -54.1 391 0L0 0Z" fill="#484c4f"></path><path d="M0 -293.2C30.7 -264.5 61.4 -235.7 90.3 -217.9C119.2 -200.2 146.3 -193.5 179.3 -179.3C212.2 -165 251 -143.3 270.9 -112.2C290.9 -81.1 292.1 -40.5 293.3 0L0 0Z" fill="#2b2f32"></path><path d="M0 -195.5C20.5 -176.3 40.9 -157.1 60.2 -145.3C79.4 -133.4 97.5 -129 119.5 -119.5C141.5 -110 167.3 -95.6 180.6 -74.8C193.9 -54.1 194.7 -27 195.5 0L0 0Z" fill="#111518"></path><path d="M0 -97.7C10.2 -88.2 20.5 -78.6 30.1 -72.6C39.7 -66.7 48.8 -64.5 59.8 -59.8C70.7 -55 83.7 -47.8 90.3 -37.4C97 -27 97.4 -13.5 97.8 0L0 0Z" fill="#000000"></path></g></svg>