<svg id="visual" viewBox="0 0 900 600" width="900" height="600" xmlns="http://www.w3.org/2000/svg" xmlns:xlink="http://www.w3.org/1999/xlink" version="1.1"><g stroke-width="1" stroke-linejoin="bevel"><path d="M474.3 372L387.7 372L476.3 449Z" fill="#a6bccf" stroke="#a6bccf"></path><path d="M387.7 372L361.7 527L476.3 449Z" fill="#b3c6d4" stroke="#b3c6d4"></path><path d="M423.7 216L299.1 365L387.7 372Z" fill="#b3c6d4" stroke="#b3c6d4"></path><path d="M387.7 372L299.1 365L361.7 527Z" fill="#8aaac4" stroke="#8aaac4"></path><path d="M361.7 527L397.7 600L476.3 449Z" fill="#dde2e6" stroke="#dde2e6"></path><path d="M474.3 372L423.7 216L387.7 372Z" fill="#5f8eb3" stroke="#5f8eb3"></path><path d="M397.7 600L512.3 600L476.3 449Z" fill="#5085ae" stroke="#5085ae"></path><path d="M476.3 449L638.9 451L474.3 372Z" fill="#7ca0be" stroke="#7ca0be"></path><path d="M512.3 600L638.9 451L476.3 449Z" fill="#a6bccf" stroke="#a6bccf"></path><path d="M474.3 372L474.3 198L423.7 216Z" fill="#5085ae" stroke="#5085ae"></path><path d="M593.9 233L474.3 198L474.3 372Z" fill="#5085ae" stroke="#5085ae"></path><path d="M299.1 365L240.1 521L361.7 527Z" fill="#7ca0be" stroke="#7ca0be"></path><path d="M361.7 527L273.1 600L397.7 600Z" fill="#a6bccf" stroke="#a6bccf"></path><path d="M638.9 451L638.9 310L474.3 372Z" fill="#6e97b9" stroke="#6e97b9"></path><path d="M638.9 310L593.9 233L474.3 372Z" fill="#7ca0be" stroke="#7ca0be"></path><path d="M240.1 521L273.1 600L361.7 527Z" fill="#7ca0be" stroke="#7ca0be"></path><path d="M423.7 216L242.1 235L299.1 365Z" fill="#8aaac4" stroke="#8aaac4"></path><path d="M299.1 365L93.6 343L240.1 521Z" fill="#cfd8e0" stroke="#cfd8e0"></path><path d="M381.7 116L242.1 235L423.7 216Z" fill="#6e97b9" stroke="#6e97b9"></path><path d="M512.3 600L613.9 600L638.9 451Z" fill="#5085ae" stroke="#5085ae"></path><path d="M506.3 90L381.7 116L474.3 198Z" fill="#c1cfda" stroke="#c1cfda"></path><path d="M474.3 198L381.7 116L423.7 216Z" fill="#5f8eb3" stroke="#5f8eb3"></path><path d="M613.9 600L734.4 520L638.9 451Z" fill="#dde2e6" stroke="#dde2e6"></path><path d="M638.9 451L811.4 354L638.9 310Z" fill="#b3c6d4" stroke="#b3c6d4"></path><path d="M593.9 233L506.3 90L474.3 198Z" fill="#5f8eb3" stroke="#5f8eb3"></path><path d="M107.6 212L93.6 343L242.1 235Z" fill="#5f8eb3" stroke="#5f8eb3"></path><path d="M242.1 235L93.6 343L299.1 365Z" fill="#b3c6d4" stroke="#b3c6d4"></path><path d="M240.1 521L126.6 600L273.1 600Z" fill="#c1cfda" stroke="#c1cfda"></path><path d="M93.6 343L102.6 530L240.1 521Z" fill="#8aaac4" stroke="#8aaac4"></path><path d="M102.6 530L126.6 600L240.1 521Z" fill="#7ca0be" stroke="#7ca0be"></path><path d="M379.7 0L280.1 72L381.7 116Z" fill="#5f8eb3" stroke="#5f8eb3"></path><path d="M381.7 116L280.1 72L242.1 235Z" fill="#8aaac4" stroke="#8aaac4"></path><path d="M613.9 600L755.4 600L734.4 520Z" fill="#b3c6d4" stroke="#b3c6d4"></path><path d="M593.9 233L662.9 116L506.3 90Z" fill="#dde2e6" stroke="#dde2e6"></path><path d="M798.4 209L662.9 116L593.9 233Z" fill="#dde2e6" stroke="#dde2e6"></path><path d="M798.4 209L593.9 233L638.9 310Z" fill="#c1cfda" stroke="#c1cfda"></path><path d="M811.4 354L638.9 451L734.4 520Z" fill="#5f8eb3" stroke="#5f8eb3"></path><path d="M160.6 96L107.6 212L242.1 235Z" fill="#cfd8e0" stroke="#cfd8e0"></path><path d="M900 430L811.4 354L734.4 520Z" fill="#5f8eb3" stroke="#5f8eb3"></path><path d="M506.3 90L379.7 0L381.7 116Z" fill="#cfd8e0" stroke="#cfd8e0"></path><path d="M503.3 0L379.7 0L506.3 90Z" fill="#5085ae" stroke="#5085ae"></path><path d="M280.1 72L160.6 96L242.1 235Z" fill="#5085ae" stroke="#5085ae"></path><path d="M122.6 0L160.6 96L280.1 72Z" fill="#6e97b9" stroke="#6e97b9"></path><path d="M640.9 0L503.3 0L506.3 90Z" fill="#6e97b9" stroke="#6e97b9"></path><path d="M811.4 354L798.4 209L638.9 310Z" fill="#7ca0be" stroke="#7ca0be"></path><path d="M662.9 116L640.9 0L506.3 90Z" fill="#5085ae" stroke="#5085ae"></path><path d="M0 257L93.6 343L107.6 212Z" fill="#6e97b9" stroke="#6e97b9"></path><path d="M0 257L0 407L93.6 343Z" fill="#7ca0be" stroke="#7ca0be"></path><path d="M93.6 343L0 407L102.6 530Z" fill="#7ca0be" stroke="#7ca0be"></path><path d="M102.6 530L0 600L126.6 600Z" fill="#8aaac4" stroke="#8aaac4"></path><path d="M379.7 0L300.1 0L280.1 72Z" fill="#c1cfda" stroke="#c1cfda"></path><path d="M798.4 209L725.4 95L662.9 116Z" fill="#6e97b9" stroke="#6e97b9"></path><path d="M0 407L0 507L102.6 530Z" fill="#b3c6d4" stroke="#b3c6d4"></path><path d="M0 122L0 257L107.6 212Z" fill="#a6bccf" stroke="#a6bccf"></path><path d="M725.4 95L640.9 0L662.9 116Z" fill="#5f8eb3" stroke="#5f8eb3"></path><path d="M900 600L900 430L734.4 520Z" fill="#c1cfda" stroke="#c1cfda"></path><path d="M811.4 354L900 333L798.4 209Z" fill="#a6bccf" stroke="#a6bccf"></path><path d="M0 507L0 600L102.6 530Z" fill="#b3c6d4" stroke="#b3c6d4"></path><path d="M900 430L900 333L811.4 354Z" fill="#c1cfda" stroke="#c1cfda"></path><path d="M900 68L725.4 0L725.4 95Z" fill="#6e97b9" stroke="#6e97b9"></path><path d="M755.4 600L900 600L734.4 520Z" fill="#8aaac4" stroke="#8aaac4"></path><path d="M900 68L725.4 95L798.4 209Z" fill="#5f8eb3" stroke="#5f8eb3"></path><path d="M725.4 95L725.4 0L640.9 0Z" fill="#dde2e6" stroke="#dde2e6"></path><path d="M300.1 0L122.6 0L280.1 72Z" fill="#5085ae" stroke="#5085ae"></path><path d="M160.6 96L0 122L107.6 212Z" fill="#98b3c9" stroke="#98b3c9"></path><path d="M900 333L900 189L798.4 209Z" fill="#5f8eb3" stroke="#5f8eb3"></path><path d="M122.6 0L0 122L160.6 96Z" fill="#8aaac4" stroke="#8aaac4"></path><path d="M900 189L900 68L798.4 209Z" fill="#a6bccf" stroke="#a6bccf"></path><path d="M122.6 0L0 0L0 122Z" fill="#6e97b9" stroke="#6e97b9"></path><path d="M900 68L900 0L725.4 0Z" fill="#7ca0be" stroke="#7ca0be"></path></g></svg>