<svg id="visual" viewBox="0 0 540 960" width="540" height="960" xmlns="http://www.w3.org/2000/svg" xmlns:xlink="http://www.w3.org/1999/xlink" version="1.1"><rect x="0" y="0" width="540" height="960" fill="#dde2e6"></rect><defs><linearGradient id="grad1_0" x1="0%" y1="0%" x2="100%" y2="100%"><stop offset="30%" stop-color="#000000" stop-opacity="1"></stop><stop offset="70%" stop-color="#000000" stop-opacity="1"></stop></linearGradient></defs><defs><linearGradient id="grad1_1" x1="0%" y1="0%" x2="100%" y2="100%"><stop offset="30%" stop-color="#000000" stop-opacity="1"></stop><stop offset="70%" stop-color="#1e2225" stop-opacity="1"></stop></linearGradient></defs><defs><linearGradient id="grad1_2" x1="0%" y1="0%" x2="100%" y2="100%"><stop offset="30%" stop-color="#393d40" stop-opacity="1"></stop><stop offset="70%" stop-color="#1e2225" stop-opacity="1"></stop></linearGradient></defs><defs><linearGradient id="grad1_3" x1="0%" y1="0%" x2="100%" y2="100%"><stop offset="30%" stop-color="#393d40" stop-opacity="1"></stop><stop offset="70%" stop-color="#575b5e" stop-opacity="1"></stop></linearGradient></defs><defs><linearGradient id="grad1_4" x1="0%" y1="0%" x2="100%" y2="100%"><stop offset="30%" stop-color="#767b7e" stop-opacity="1"></stop><stop offset="70%" stop-color="#575b5e" stop-opacity="1"></stop></linearGradient></defs><defs><linearGradient id="grad1_5" x1="0%" y1="0%" x2="100%" y2="100%"><stop offset="30%" stop-color="#767b7e" stop-opacity="1"></stop><stop offset="70%" stop-color="#979ca0" stop-opacity="1"></stop></linearGradient></defs><defs><linearGradient id="grad1_6" x1="0%" y1="0%" x2="100%" y2="100%"><stop offset="30%" stop-color="#b9bec2" stop-opacity="1"></stop><stop offset="70%" stop-color="#979ca0" stop-opacity="1"></stop></linearGradient></defs><defs><linearGradient id="grad1_7" x1="0%" y1="0%" x2="100%" y2="100%"><stop offset="30%" stop-color="#b9bec2" stop-opacity="1"></stop><stop offset="70%" stop-color="#dde2e6" stop-opacity="1"></stop></linearGradient></defs><defs><linearGradient id="grad2_0" x1="0%" y1="0%" x2="100%" y2="100%"><stop offset="30%" stop-color="#000000" stop-opacity="1"></stop><stop offset="70%" stop-color="#000000" stop-opacity="1"></stop></linearGradient></defs><defs><linearGradient id="grad2_1" x1="0%" y1="0%" x2="100%" y2="100%"><stop offset="30%" stop-color="#1e2225" stop-opacity="1"></stop><stop offset="70%" stop-color="#000000" stop-opacity="1"></stop></linearGradient></defs><defs><linearGradient id="grad2_2" x1="0%" y1="0%" x2="100%" y2="100%"><stop offset="30%" stop-color="#1e2225" stop-opacity="1"></stop><stop offset="70%" stop-color="#393d40" stop-opacity="1"></stop></linearGradient></defs><defs><linearGradient id="grad2_3" x1="0%" y1="0%" x2="100%" y2="100%"><stop offset="30%" stop-color="#575b5e" stop-opacity="1"></stop><stop offset="70%" stop-color="#393d40" stop-opacity="1"></stop></linearGradient></defs><defs><linearGradient id="grad2_4" x1="0%" y1="0%" x2="100%" y2="100%"><stop offset="30%" stop-color="#575b5e" stop-opacity="1"></stop><stop offset="70%" stop-color="#767b7e" stop-opacity="1"></stop></linearGradient></defs><defs><linearGradient id="grad2_5" x1="0%" y1="0%" x2="100%" y2="100%"><stop offset="30%" stop-color="#979ca0" stop-opacity="1"></stop><stop offset="70%" stop-color="#767b7e" stop-opacity="1"></stop></linearGradient></defs><defs><linearGradient id="grad2_6" x1="0%" y1="0%" x2="100%" y2="100%"><stop offset="30%" stop-color="#979ca0" stop-opacity="1"></stop><stop offset="70%" stop-color="#b9bec2" stop-opacity="1"></stop></linearGradient></defs><defs><linearGradient id="grad2_7" x1="0%" y1="0%" x2="100%" y2="100%"><stop offset="30%" stop-color="#dde2e6" stop-opacity="1"></stop><stop offset="70%" stop-color="#b9bec2" stop-opacity="1"></stop></linearGradient></defs><g transform="translate(540, 0)"><path d="M0 459C-67 460.3 -134.1 461.6 -175.7 424.1C-217.3 386.6 -233.4 310.3 -260.9 260.9C-288.4 211.5 -327.3 189 -362.2 150C-397.1 111 -428 55.5 -459 0L0 0Z" fill="#cbd0d4"></path><path d="M0 401.6C-58.6 402.7 -117.3 403.9 -153.7 371.1C-190.1 338.2 -204.2 271.5 -228.3 228.3C-252.4 185.1 -286.4 165.4 -316.9 131.3C-347.4 97.1 -374.5 48.6 -401.6 0L0 0Z" fill="#a8adb1"></path><path d="M0 344.3C-50.3 345.2 -100.5 346.2 -131.7 318C-162.9 289.9 -175.1 232.7 -195.7 195.7C-216.3 158.7 -245.4 141.8 -271.6 112.5C-297.8 83.3 -321 41.6 -344.2 0L0 0Z" fill="#868b8f"></path><path d="M0 286.9C-41.9 287.7 -83.8 288.5 -109.8 265C-135.8 241.6 -145.9 193.9 -163.1 163.1C-180.3 132.2 -204.5 118.1 -226.4 93.8C-248.2 69.4 -267.5 34.7 -286.9 0L0 0Z" fill="#666b6e"></path><path d="M0 229.5C-33.5 230.1 -67 230.8 -87.8 212C-108.6 193.3 -116.7 155.2 -130.5 130.5C-144.2 105.8 -163.6 94.5 -181.1 75C-198.5 55.5 -214 27.8 -229.5 0L0 0Z" fill="#484c4f"></path><path d="M0 172.1C-25.1 172.6 -50.3 173.1 -65.9 159C-81.5 145 -87.5 116.4 -97.8 97.8C-108.2 79.3 -122.7 70.9 -135.8 56.3C-148.9 41.6 -160.5 20.8 -172.1 0L0 0Z" fill="#2b2f32"></path><path d="M0 114.8C-16.8 115.1 -33.5 115.4 -43.9 106C-54.3 96.6 -58.4 77.6 -65.2 65.2C-72.1 52.9 -81.8 47.3 -90.5 37.5C-99.3 27.8 -107 13.9 -114.7 0L0 0Z" fill="#111518"></path><path d="M0 57.4C-8.4 57.5 -16.8 57.7 -22 53C-27.2 48.3 -29.2 38.8 -32.6 32.6C-36.1 26.4 -40.9 23.6 -45.3 18.8C-49.6 13.9 -53.5 6.9 -57.4 0L0 0Z" fill="#000000"></path></g><g transform="translate(0, 960)"><path d="M0 -459C52.2 -437.7 104.3 -416.5 165.3 -399.1C226.3 -381.8 296.1 -368.4 324.6 -324.6C353 -280.7 340.2 -206.5 355.7 -147.3C371.2 -88.2 415.1 -44.1 459 0L0 0Z" fill="#cbd0d4"></path><path d="M0 -401.6C45.6 -383 91.3 -364.4 144.7 -349.2C198 -334.1 259.1 -322.3 284 -284C308.9 -245.6 297.7 -180.7 311.2 -128.9C324.8 -77.1 363.2 -38.6 401.6 0L0 0Z" fill="#a8adb1"></path><path d="M0 -344.2C39.1 -328.3 78.3 -312.3 124 -299.3C169.7 -286.3 222.1 -276.3 243.4 -243.4C264.8 -210.6 255.1 -154.9 266.8 -110.5C278.4 -66.1 311.3 -33.1 344.3 0L0 0Z" fill="#868b8f"></path><path d="M0 -286.9C32.6 -273.6 65.2 -260.3 103.3 -249.4C141.4 -238.6 185.1 -230.2 202.9 -202.9C220.6 -175.5 212.6 -129.1 222.3 -92.1C232 -55.1 259.4 -27.6 286.9 0L0 0Z" fill="#666b6e"></path><path d="M0 -229.5C26.1 -218.9 52.2 -208.2 82.7 -199.6C113.2 -190.9 148 -184.2 162.3 -162.3C176.5 -140.4 170.1 -103.2 177.8 -73.7C185.6 -44.1 207.6 -22 229.5 0L0 0Z" fill="#484c4f"></path><path d="M0 -172.1C19.6 -164.1 39.1 -156.2 62 -149.7C84.9 -143.2 111 -138.1 121.7 -121.7C132.4 -105.3 127.6 -77.4 133.4 -55.2C139.2 -33.1 155.7 -16.5 172.1 0L0 0Z" fill="#2b2f32"></path><path d="M0 -114.7C13 -109.4 26.1 -104.1 41.3 -99.8C56.6 -95.4 74 -92.1 81.1 -81.1C88.3 -70.2 85 -51.6 88.9 -36.8C92.8 -22 103.8 -11 114.8 0L0 0Z" fill="#111518"></path><path d="M0 -57.4C6.5 -54.7 13 -52.1 20.7 -49.9C28.3 -47.7 37 -46 40.6 -40.6C44.1 -35.1 42.5 -25.8 44.5 -18.4C46.4 -11 51.9 -5.5 57.4 0L0 0Z" fill="#000000"></path></g></svg>